<?xml version="1.0" standalone="no"?><!DOCTYPE svg PUBLIC "-//W3C//DTD SVG 1.1//EN" "http://www.w3.org/Graphics/SVG/1.1/DTD/svg11.dtd"><svg t="1693295222583" class="icon" viewBox="0 0 1024 1024" version="1.1" xmlns="http://www.w3.org/2000/svg" p-id="18595" xmlns:xlink="http://www.w3.org/1999/xlink" width="200" height="200"><path d="M923.3 575.5H715.7c-52.1 0-94.7-42.6-94.7-94.7s42.6-94.7 94.7-94.7h207.6c1.6 0 3.2 0 4.7 0.1V237.7c0-44-36-80-80-80H178c-44 0-80 36-80 80v486.2c0 44 36 80 80 80h670c44 0 80-36 80-80V575.4c-1.6 0-3.1 0.1-4.7 0.1z" fill="#fa9d6b" p-id="18596"></path><path d="M737.9 480.8m-47.9 0a47.9 47.9 0 1 0 95.8 0 47.9 47.9 0 1 0-95.8 0Z" fill="#fa9d6b" p-id="18597"></path></svg>